<svg id="Layer_1" data-name="Layer 1" xmlns="http://www.w3.org/2000/svg" xmlns:xlink="http://www.w3.org/1999/xlink" viewBox="0 0 368 352"><defs><style>.cls-1{fill:url(#linear-gradient);}.cls-2{fill:url(#linear-gradient-2);}</style><linearGradient id="linear-gradient" x1="50.98" y1="182.29" x2="276.58" y2="61.29" gradientUnits="userSpaceOnUse"><stop offset="0" stop-color="#feb608"/><stop offset="0.08" stop-color="#fe9c16"/><stop offset="0.21" stop-color="#ff762a"/><stop offset="0.33" stop-color="#ff5b39"/><stop offset="0.43" stop-color="#ff4b42"/><stop offset="0.51" stop-color="#ff4545"/><stop offset="0.62" stop-color="#fe3f4a"/><stop offset="0.75" stop-color="#f92e59"/><stop offset="0.91" stop-color="#f31372"/><stop offset="0.98" stop-color="#ef047f"/></linearGradient><linearGradient id="linear-gradient-2" x1="163.46" y1="143.43" x2="196.73" y2="109.39" gradientUnits="userSpaceOnUse"><stop offset="0" stop-color="#e34001"/><stop offset="0.34" stop-color="#d7291b"/><stop offset="1" stop-color="#c1004a"/></linearGradient></defs><title>Artboard 1</title><path d="M19.1,256H42.4c9.6,0,16.45,6.85,16.45,17.13,0,8.91-5.14,14-11.31,16.1L59.88,304H44.46l-12-14.39h-.69V304H19.1ZM41.72,278.3c2.4,0,4.45-2.06,4.45-5.14S44.12,268,41.72,268H31.78V278.3Z"/><path d="M63.88,268.36h12v19.19a5.48,5.48,0,0,0,11,0V268.36h12V304H88.2l-.68-2.74h-.35s-3.08,3.42-9.25,3.42c-8.22,0-14-5.48-14-14.39Z"/><path d="M105.62,256h12v14.39H118s2.74-2.74,8.56-2.74c9.26,0,16.79,7.54,16.79,18.5s-7.53,18.5-16.79,18.5c-6.51,0-9.25-3.42-9.25-3.42h-.34l-.68,2.74H105.62Zm25.7,30.15c0-4.45-3.08-7.54-6.85-7.54s-6.85,3.09-6.85,7.54,3.08,7.54,6.85,7.54S131.32,290.63,131.32,286.18Z"/><path d="M147.3,306.74h7.19c1.37,0,1.85-.28,2.13-1l.27-.68-14-36.67h12.68l7.2,19.88h1.37l6.51-19.88h12.67l-14.73,41.46c-1.92,5.48-4.8,7.88-11.31,7.88H147.3Z"/><path d="M200.74,256h14.74l13,24.67h1.37V256h12.67v48H227.81l-13-24.67h-1.37V304H200.74Z"/><path d="M284.24,293c-1,3.43-5.48,11.65-17.13,11.65-11,0-18.84-7.88-18.84-18.5s7.88-18.5,18.84-18.5c10.62,0,18.16,7.74,18.16,18.16a15.62,15.62,0,0,1-.34,3.42h-25a6.85,6.85,0,0,0,7.19,6.17,8,8,0,0,0,5.83-2.4ZM274,282.75c-.68-3.76-3.42-6.16-6.85-6.16-4.11,0-6.85,2.4-7.19,6.16Z"/><path d="M296.56,285.84l-11-17.48h12.81l5,9.26h1.37l5-9.26H322.6l-11,17.48L323.29,304H310.47l-5.69-9.6h-1.37l-5.69,9.6H284.91Z"/><path d="M330.06,279.33h-5.48v-11h5.48v-11h12v11h7.88v11h-7.88v11.3c0,1.72.69,2.4,2.4,2.4h5.48v11h-8.56c-7.54,0-11.31-3.77-11.31-10.62Z"/><path class="cls-1" d="M314.88,117.07,216.33,34.94a12.7,12.7,0,0,0-16.49.2L181.46,51.22a16,16,0,0,0-5.46,12V94.67L104.33,34.94a12.7,12.7,0,0,0-16.49.2L69.46,51.22a16,16,0,0,0-5.46,12V192.74a16,16,0,0,0,5.46,12l18.38,16.08a12.7,12.7,0,0,0,16.49.2L176,161.33v31.41a16,16,0,0,0,5.46,12l18.38,16.08a12.7,12.7,0,0,0,16.49.2l98.55-82.13a14.23,14.23,0,0,0,0-21.86Z"/><path class="cls-2" d="M176,94.67v66.66l26.88-22.4a14.23,14.23,0,0,0,0-21.86Z"/></svg>